<?xml version="1.0" standalone="no"?>
<!DOCTYPE svg PUBLIC "-//W3C//DTD SVG 20010904//EN"
 "http://www.w3.org/TR/2001/REC-SVG-20010904/DTD/svg10.dtd">
<svg version="1.0" xmlns="http://www.w3.org/2000/svg"
 width="72.000000pt" height="72.000000pt" viewBox="0 0 72.000000 72.000000"
 preserveAspectRatio="xMidYMid meet">
<metadata>
Created by potrace 1.11, written by Peter Selinger 2001-2013
</metadata>
<g transform="translate(0.000000,72.000000) scale(0.100000,-0.100000)"
fill="#000000" stroke="none">
<path d="M343 673 c9 -2 23 -2 30 0 6 3 -1 5 -18 5 -16 0 -22 -2 -12 -5z"/>
<path d="M278 656 c3 -5 -5 -7 -16 -4 -12 4 -20 3 -17 -1 2 -5 -7 -13 -21 -20
-31 -14 -37 -14 -28 1 5 7 3 8 -5 4 -7 -5 -10 -11 -7 -14 8 -7 -24 -42 -37
-42 -6 0 -2 10 9 23 11 12 5 9 -13 -7 -18 -16 -30 -33 -27 -37 3 -5 -6 -28
-20 -51 -14 -24 -28 -63 -32 -88 -7 -39 -9 -42 -14 -20 -4 16 -7 3 -7 -35 0
-50 1 -54 7 -25 l7 35 2 -37 c0 -21 10 -61 21 -89 10 -29 17 -56 14 -60 -6
-10 74 -92 107 -109 27 -14 18 -4 -25 28 -16 12 -24 22 -19 22 6 0 16 -6 22
-14 6 -8 25 -20 42 -26 18 -8 26 -16 19 -20 -6 -3 5 -11 25 -17 19 -6 33 -7
29 -2 -3 5 6 9 20 9 14 0 26 -4 26 -10 0 -5 5 -10 11 -10 5 0 8 4 5 8 -3 5 1
9 9 9 8 0 12 -4 9 -9 -3 -4 0 -8 5 -8 6 0 11 5 11 10 0 6 11 10 24 10 13 0 49
13 81 29 33 17 62 28 66 25 10 -6 89 93 89 109 0 7 -6 3 -12 -8 -18 -33 -70
-96 -75 -92 -2 3 9 19 26 37 16 19 35 46 42 62 6 15 15 26 18 23 4 -2 7 4 7
13 0 56 5 93 12 89 4 -3 7 10 8 29 0 19 -2 30 -6 24 -4 -7 -11 5 -15 26 -3 21
-13 51 -21 66 -8 16 -12 34 -8 40 5 7 3 8 -6 3 -10 -6 -12 -4 -7 8 7 18 -68
92 -83 82 -5 -3 -24 2 -42 11 -36 19 -220 36 -210 20z m311 -80 c37 -40 11
-30 -29 11 -20 20 -27 31 -15 25 11 -6 31 -22 44 -36z m-449 -6 c0 -5 -5 -10
-11 -10 -5 0 -7 5 -4 10 3 6 8 10 11 10 2 0 4 -4 4 -10z m7 -436 c-3 -3 -15
10 -27 28 l-23 33 28 -28 c15 -16 25 -31 22 -33z"/>
<path d="M93 538 c-15 -20 -25 -38 -20 -38 3 0 12 11 21 25 17 26 16 35 -1 13z"/>
<path d="M51 444 c0 -11 3 -14 6 -6 3 7 2 16 -1 19 -3 4 -6 -2 -5 -13z"/>
<path d="M661 444 c0 -11 3 -14 6 -6 3 7 2 16 -1 19 -3 4 -6 -2 -5 -13z"/>
<path d="M57 249 c4 -13 8 -18 11 -10 2 7 -1 18 -6 23 -8 8 -9 4 -5 -13z"/>
<path d="M505 84 c-22 -13 -35 -24 -30 -24 12 0 75 38 75 45 0 6 2 7 -45 -21z"/>
<path d="M408 43 c7 -3 16 -2 19 1 4 3 -2 6 -13 5 -11 0 -14 -3 -6 -6z"/>
</g>
</svg>
